<?xml version="1.0" encoding="UTF-8" standalone="no"?>
<svg
   xmlns:dc="http://purl.org/dc/elements/1.1/"
   xmlns:cc="http://creativecommons.org/ns#"
   xmlns:rdf="http://www.w3.org/1999/02/22-rdf-syntax-ns#"
   xmlns:svg="http://www.w3.org/2000/svg"
   xmlns="http://www.w3.org/2000/svg"
   id="svg8"
   version="1.1"
   viewBox="0 0 210 297"
   height="297mm"
   width="210mm">
  <defs
     id="defs2" />
  <metadata
     id="metadata5">
    <rdf:RDF>
      <cc:Work
         rdf:about="">
        <dc:format>image/svg+xml</dc:format>
        <dc:type
           rdf:resource="http://purl.org/dc/dcmitype/StillImage" />
        <dc:title></dc:title>
      </cc:Work>
    </rdf:RDF>
  </metadata>
  <g
     id="layer1">
    <flowRoot
       transform="matrix(0.26458333,0,0,0.26458333,30.142326,17.303928)"
       style="font-style:normal;font-variant:normal;font-weight:bold;font-stretch:normal;font-size:40px;line-height:1.25;font-family:'.Beirut PUA';-inkscape-font-specification:'.Beirut PUA Bold';letter-spacing:0px;word-spacing:0px;fill:#000000;fill-opacity:1;stroke:none"
       id="flowRoot10"
       xml:space="preserve"><flowRegion
         style="font-style:normal;font-variant:normal;font-weight:bold;font-stretch:normal;font-family:'.Beirut PUA';-inkscape-font-specification:'.Beirut PUA Bold'"
         id="flowRegion12"><rect
           style="font-style:normal;font-variant:normal;font-weight:bold;font-stretch:normal;font-family:'.Beirut PUA';-inkscape-font-specification:'.Beirut PUA Bold'"
           y="313.94824"
           x="54.285713"
           height="459.48587"
           width="1008.3018"
           id="rect14" /></flowRegion><flowPara
         style="font-style:normal;font-variant:normal;font-weight:bold;font-stretch:normal;font-size:192px;font-family:'.Beirut PUA';-inkscape-font-specification:'.Beirut PUA Bold'"
         id="flowPara16" /></flowRoot>    <g
       id="text46"
       style="font-style:normal;font-variant:normal;font-weight:normal;font-stretch:normal;font-size:43.16962433px;line-height:1.25;font-family:'Source Sans Pro';-inkscape-font-specification:'Source Sans Pro';letter-spacing:-2.11666656px;word-spacing:0px;fill:#000000;fill-opacity:1;stroke:none;stroke-width:1.07924068"
       aria-label="s8f.org">
      <path
         d="m 91.764556,90.36832 a 2.7301951,2.9767104 0 0 1 -2.73019,2.97672 2.7301951,2.9767104 0 0 1 -2.730197,-2.97672 2.7301951,2.9767104 0 0 1 2.730197,-2.9767 2.7301951,2.9767104 0 0 1 2.73019,2.9767 z M 100.99992,2.2848614 c -5.309976,0 -9.748111,2.534114 -13.315748,7.6021775 -1.451941,2.0712761 -2.696837,4.5390561 -3.733944,7.4036211 -1.037107,2.86455 -2.053705,6.69837 -3.049327,11.50201 l -5.848816,29.02096 h -6.16063 l -0.435755,2.2467 h 6.098655 l -8.089577,39.99421 c -1.244528,5.90539 -2.426983,10.13616 -3.547058,12.69223 -1.534918,3.43748 -3.837396,5.15589 -6.907223,5.15589 -2.032726,0 -3.92056,-0.74933 -5.662899,-2.24771 l -3.048354,4.75982 c 1.493425,0.70514 3.19395,1.05753 5.102221,1.05753 3.940995,0 7.571303,-1.9164 10.890035,-5.75051 1.825308,-2.11537 3.277042,-4.40693 4.355624,-6.87486 1.037107,-2.46794 2.115178,-6.21467 3.235253,-11.23866 l 8.525332,-37.54794 h 10.080498 l 0.435756,-2.2467 H 79.90544 l 9.520792,-41.910709 c 0.87117,-3.701905 1.908259,-6.3468911 3.111303,-7.9333996 1.244519,-1.630628 2.841627,-2.445249 4.791379,-2.445249 2.572019,0 4.687196,1.233363 6.346566,3.701306 l 2.24075,-6.014889 c -1.49343,-0.61699 -3.13249,-0.925828 -4.91631,-0.925828 z M 53.552833,41.08884 c -2.779442,0 -5.310217,0.61672 -7.591847,1.85065 -2.240146,1.23398 -4.003104,2.90886 -5.289115,5.02423 -1.28601,2.11535 -1.928951,4.47327 -1.928951,7.07342 0,1.98315 0.373666,3.78966 1.120382,5.42027 0.788198,1.63058 2.157006,3.41535 4.106761,5.35444 -4.355838,1.54245 -7.79883,3.81227 -10.329362,6.80903 -2.530538,2.99676 -3.795922,6.25743 -3.795922,9.78304 0,4.09852 1.493682,7.4483 4.480543,10.04844 2.986856,2.55609 6.864981,3.83402 11.635664,3.83402 4.895129,0 8.982033,-1.47591 12.25928,-4.42862 3.318734,-2.99676 4.978276,-6.67716 4.978276,-11.04011 0,-2.42387 -0.53952,-4.49467 -1.618111,-6.21342 -1.037102,-1.7628 -3.028359,-3.87817 -5.973734,-6.34612 l -0.622646,-0.52874 c 2.406077,-0.92547 4.52221,-2.15988 6.34751,-3.70234 1.825308,-1.58653 3.2146,-3.3267 4.168739,-5.22172 0.995622,-1.89503 1.493191,-3.90056 1.493191,-6.01591 0,-2.24758 -0.580501,-4.23132 -1.742052,-5.95005 -1.120075,-1.7628 -2.717175,-3.15063 -4.791385,-4.16424 -2.032726,-1.05768 -4.335206,-1.58627 -6.907221,-1.58627 z m -0.746598,1.65212 c 2.737952,0 5.060927,1.01363 6.969198,3.04086 1.949753,1.98317 2.924409,4.49551 2.924409,7.53635 0,1.85092 -0.393185,3.70201 -1.181386,5.55297 -0.7882,1.80687 -1.88773,3.41544 -3.29819,4.82568 -1.410465,1.36618 -2.92464,2.33524 -4.54252,2.90816 C 46.210595,61.36063 42.47687,56.53496 42.47687,52.12794 c 0,-1.67465 0.45659,-3.23867 1.369243,-4.69298 0.954136,-1.45433 2.219527,-2.60062 3.795923,-3.43796 1.617884,-0.83732 3.338894,-1.25604 5.164199,-1.25604 z m 64.528755,8.62059 c -2.58862,0 -5.09627,0.51594 -7.5231,1.5472 -2.42682,0.97394 -4.58394,2.43439 -6.47146,4.38229 -1.83361,1.89061 -3.31608,4.2394 -4.448607,7.04668 -1.078587,2.80725 -1.618098,5.98717 -1.618098,9.53922 0,3.55206 0.539511,6.73197 1.618098,9.53924 1.132527,2.80727 2.614997,5.18414 4.448607,7.13206 1.88752,1.89058 4.04464,3.35207 6.47146,4.38333 2.42683,0.97394 4.93448,1.46075 7.5231,1.46075 2.58861,0 5.06982,-0.48681 7.44271,-1.46075 2.42683,-1.03126 4.55653,-2.49275 6.39013,-4.38333 1.88752,-1.94792 3.39839,-4.32479 4.53089,-7.13206 1.13253,-2.80727 1.6985,-5.98718 1.6985,-9.53924 0,-3.55205 -0.56597,-6.73197 -1.6985,-9.53922 -1.1325,-2.80728 -2.64337,-5.15607 -4.53089,-7.04668 -1.8336,-1.9479 -3.9633,-3.40835 -6.39013,-4.38229 -2.37289,-1.03126 -4.8541,-1.5472 -7.44271,-1.5472 z m 47.5265,0 c -1.99541,0 -4.04382,0.68758 -6.14707,2.06256 -2.04932,1.31771 -3.82945,3.43765 -5.33947,6.35949 h -0.32343 l -0.97127,-7.39128 h -11.3248 v 42.96822 h 13.91417 V 71.47079 c 0.97074,-2.69269 2.23779,-4.55465 3.80174,-5.5859 1.61788,-1.08853 3.15518,-1.63258 4.61126,-1.63258 0.91681,2e-5 1.6982,0.0854 2.34534,0.2572 0.70109,0.11466 1.42957,0.25811 2.18459,0.42998 l 2.26496,-12.71897 c -0.59321,-0.28649 -1.26786,-0.48725 -2.02286,-0.6018 -0.75502,-0.17179 -1.75279,-0.25717 -2.99316,-0.25717 z m 20.96568,0 c -2.2111,0 -4.36822,0.31519 -6.47147,0.9454 -2.04932,0.6302 -3.88231,1.60384 -5.50021,2.92153 -1.61788,1.26039 -2.91235,2.89352 -3.88307,4.89871 -0.97071,1.9479 -1.45639,4.23949 -1.45639,6.87488 0,2.5208 0.53951,4.72605 1.61811,6.61666 1.13251,1.89062 2.42698,3.3521 3.88306,4.38334 v 0.3436 c -1.40215,1.03123 -2.50764,2.26284 -3.31657,3.69511 -0.80895,1.43229 -1.21335,2.89276 -1.21335,4.38231 0,1.83332 0.35054,3.32288 1.05164,4.46872 0.70106,1.14583 1.59016,2.12051 2.66876,2.92257 v 0.34359 c -3.77508,2.11977 -5.66193,4.87009 -5.66193,8.25026 0,1.94789 0.45824,3.57999 1.37505,4.89768 0.9168,1.375 2.13,2.49217 3.64001,3.35154 1.56396,0.85938 3.37053,1.46164 5.41985,1.80538 2.04931,0.40105 4.23385,0.60078 6.5528,0.60078 3.61329,0 6.84846,-0.37238 9.70673,-1.11717 2.91217,-0.74479 5.36598,-1.80477 7.36136,-3.17975 2.04935,-1.37498 3.61404,-3.0362 4.69262,-4.98409 1.1325,-1.89063 1.69849,-4.010572 1.69849,-6.35951 0,-3.9531 -1.40218,-6.7887 -4.20651,-8.50742 -2.75039,-1.77603 -6.66023,-2.66437 -11.72959,-2.66437 h -6.06767 c -2.04932,0 -3.50535,-0.17159 -4.36821,-0.51538 -0.86287,-0.40105 -1.29372,-1.08863 -1.29372,-2.06257 0,-0.63021 0.0539,-1.0879 0.16172,-1.37436 0.10794,-0.34374 0.37714,-0.71614 0.80857,-1.11718 1.67181,0.40104 3.1817,0.60078 4.52992,0.60078 2.26504,0 4.3957,-0.25696 6.39111,-0.77256 1.99537,-0.57294 3.72068,-1.43317 5.17678,-2.57899 1.45609,-1.1458 2.61543,-2.60627 3.47829,-4.38231 0.86288,-1.83331 1.29469,-4.01047 1.29469,-6.53129 0,-0.85937 -0.0813,-1.69048 -0.24306,-2.49256 -0.10793,-0.80209 -0.242,-1.46054 -0.40379,-1.97615 h 5.82364 V 52.39232 h -15.04618 c -1.94148,-0.6875 -4.09858,-1.03077 -6.47148,-1.03077 z M 22.503735,57.28487 c -2.115694,0 -4.12744,0.55034 -6.035711,1.6521 -1.908271,1.05768 -3.443903,2.46828 -4.605461,4.23108 -1.120073,1.76282 -1.680083,3.67923 -1.680083,5.75051 0,1.58653 0.414643,2.9971 1.244328,4.23109 0.871167,1.18988 2.530706,2.84302 4.978273,4.95837 2.654986,2.29167 4.335018,3.92199 5.040248,4.89153 0.705232,0.96954 1.058406,2.13761 1.058406,3.50379 0,1.895 -0.747328,3.56887 -2.240758,5.02319 -1.451945,1.41024 -3.214905,2.11606 -5.289114,2.11606 -3.982479,0 -6.885949,-2.29157 -8.7112554,-6.87489 l -3.485081,4.36277 c 2.5305353,3.61375 5.641811,5.42027 9.3339014,5.42027 2.323113,0 4.522175,-0.59491 6.596385,-1.7848 2.11569,-1.1899 3.775232,-2.77669 4.978273,-4.75984 1.244525,-2.02723 1.866974,-4.18613 1.866975,-6.4778 -1e-6,-3.08492 -1.763929,-6.10407 -5.290084,-9.05677 l -3.609032,-3.10671 c -2.157177,-1.80687 -3.235248,-3.63619 -3.235248,-5.48714 0,-1.49838 0.622448,-2.81985 1.866974,-3.96566 1.286009,-1.18991 2.778726,-1.78483 4.479576,-1.78483 1.908273,0 3.464394,0.59492 4.667435,1.78483 1.244525,1.14581 1.990884,2.75438 2.239788,4.82568 1.617886,-0.74921 2.426678,-2.13803 2.426678,-4.16526 0,-1.54246 -0.642934,-2.7976 -1.928947,-3.76713 -1.244525,-1.01361 -2.799679,-1.52044 -4.666466,-1.52044 z m 163.323435,3.8731 c 1.29433,0 2.34595,0.48682 3.15489,1.46076 0.80894,0.91666 1.21333,2.37813 1.21333,4.38334 0,2.06248 -0.40439,3.58016 -1.21333,4.55409 -0.80894,0.97396 -1.86056,1.46079 -3.15489,1.46079 -1.2943,0 -2.34592,-0.48683 -3.15488,-1.46079 -0.80892,-0.97393 -1.21333,-2.49161 -1.21333,-4.55409 0,-2.00521 0.40441,-3.46668 1.21333,-4.38334 0.80896,-0.97394 1.86058,-1.46076 3.15488,-1.46076 z m -68.49218,2.06256 c 2.10324,0 3.58668,0.97364 4.44956,2.92154 0.9168,1.8906 1.37504,4.46928 1.37504,7.73487 0,3.2656 -0.45824,5.87236 -1.37504,7.82025 -0.86288,1.8906 -2.34632,2.83616 -4.44956,2.83616 -2.10325,0 -3.61313,-0.94556 -4.52994,-2.83616 -0.86287,-1.94789 -1.2937,-4.55465 -1.2937,-7.82025 0,-3.26559 0.43083,-5.84427 1.2937,-7.73487 0.91681,-1.9479 2.42669,-2.92154 4.52994,-2.92154 z m -72.182574,3.64882 c 3.152798,2.2476 5.994793,4.56196 8.52533,6.94176 3.27725,2.95271 4.915332,6.14702 4.915332,9.58448 0,3.21714 -1.057583,5.8839 -3.173274,7.99926 -2.115692,2.11538 -4.770377,3.17254 -7.964659,3.17254 -2.364598,0 -4.543167,-0.59491 -6.534409,-1.7848 -1.949755,-1.23398 -3.504911,-2.88606 -4.666469,-4.95736 -1.161555,-2.0713 -1.742055,-4.34111 -1.742055,-6.80903 0,-3.30528 0.974651,-6.23634 2.924412,-8.7924 1.949754,-2.55605 4.521511,-4.34081 7.715792,-5.35445 z m 41.320356,11.64811 c -2.372897,0 -4.31362,0.8592 -5.82364,2.57795 -1.510029,1.71873 -2.265928,3.83868 -2.265928,6.35948 0,2.5208 0.755899,4.64076 2.265928,6.35949 1.51002,1.71875 3.450743,2.57794 5.82364,2.57794 2.372896,0 4.314588,-0.85919 5.824608,-2.57794 1.510029,-1.71873 2.264968,-3.83869 2.264968,-6.35949 0,-2.5208 -0.754939,-4.64075 -2.264968,-6.35948 -1.51002,-1.71875 -3.451712,-2.57795 -5.824608,-2.57795 z m 93.854188,18.39025 c 0.59323,0.1718 1.29432,0.28626 2.10325,0.34359 0.86288,0.11446 2.10252,0.17179 3.7204,0.17179 h 3.15488 c 1.72573,0 3.04761,0.14353 3.9644,0.43001 0.97074,0.28646 1.45543,1.00315 1.45543,2.14898 0,1.2031 -0.75493,2.14764 -2.26495,2.83512 -1.51004,0.74479 -3.3969,1.11719 -5.66193,1.11719 -2.3729,0 -4.28718,-0.31519 -5.74327,-0.9454 -1.45611,-0.63018 -2.18459,-1.63194 -2.18459,-3.00691 0,-0.63021 0.10775,-1.17525 0.32343,-1.63359 0.26963,-0.45833 0.64761,-0.94516 1.13295,-1.46078 z"
         style="fill:#333333;stroke-width:0.33938849"
         id="path185" />
    </g>
  </g>
</svg>
