<?xml version="1.0" encoding="UTF-8" standalone="no"?>
<svg
   xmlns:dc="http://purl.org/dc/elements/1.1/"
   xmlns:cc="http://creativecommons.org/ns#"
   xmlns:rdf="http://www.w3.org/1999/02/22-rdf-syntax-ns#"
   xmlns:svg="http://www.w3.org/2000/svg"
   xmlns="http://www.w3.org/2000/svg"
   id="svg8"
   version="1.1"
   viewBox="0 0 210 297"
   height="297mm"
   width="210mm">
  <defs
     id="defs2" />
  <metadata
     id="metadata5">
    <rdf:RDF>
      <cc:Work
         rdf:about="">
        <dc:format>image/svg+xml</dc:format>
        <dc:type
           rdf:resource="http://purl.org/dc/dcmitype/StillImage" />
        <dc:title></dc:title>
      </cc:Work>
    </rdf:RDF>
  </metadata>
  <g
     id="layer1">
    <path
       id="rect131"
       transform="scale(0.26458333)"
       d="M 16.310547 434.41406 L 16.310547 688.10742 L 777.39062 688.10742 L 777.39062 434.41406 L 16.310547 434.41406 z M 138.27344 478.73438 C 154.85482 478.73438 168.22589 483.74005 178.38867 493.75 C 188.55145 483.74005 201.92448 478.73437 218.50586 478.73438 C 235.24006 478.73437 249.45156 484.58047 261.14258 496.27148 C 272.8336 507.9625 278.67969 521.98379 278.67969 538.33594 L 278.67969 643.78516 L 238.5625 643.78516 L 238.5625 538.33594 C 238.5625 532.52864 236.57693 527.63943 232.60352 523.66602 C 228.6301 519.69257 223.9311 517.70508 218.50586 517.70508 C 213.08061 517.70508 208.37967 519.69257 204.40625 523.66602 C 200.43283 527.63943 198.44727 532.52864 198.44727 538.33594 L 198.44727 643.78516 L 158.33008 643.78516 L 158.33008 538.33594 C 158.33008 532.52864 156.34451 527.63943 152.37109 523.66602 C 148.39767 519.69257 143.69868 517.70508 138.27344 517.70508 C 132.84819 517.70508 128.14725 519.69257 124.17383 523.66602 C 120.20041 527.63943 118.21484 532.52864 118.21484 538.33594 L 118.21484 643.78516 L 78.097656 643.78516 L 78.097656 538.33594 C 78.097656 521.98379 83.943745 507.9625 95.634766 496.27148 C 107.32578 484.58047 121.53923 478.73437 138.27344 478.73438 z M 342.17773 478.73438 L 382.29492 478.73438 L 382.29492 643.78516 L 342.17773 643.78516 L 342.17773 478.73438 z M 393.98438 478.73438 L 434.10156 478.73438 L 434.10156 643.78516 L 393.98438 643.78516 L 393.98438 478.73438 z M 574.9668 478.73438 L 663.79492 478.73438 L 663.79492 643.78516 L 623.67969 643.78516 L 623.67969 517.70508 L 574.9668 517.70508 C 564.88042 517.70508 556.13071 521.90718 548.71875 530.3125 C 541.38322 538.71782 537.71484 549.03388 537.71484 561.25977 C 537.71484 573.48568 541.38322 583.80174 548.71875 592.20703 C 556.13071 600.61235 564.88042 604.81445 574.9668 604.81445 L 617.94727 604.81445 L 617.94727 643.78516 L 574.9668 643.78516 C 553.49505 643.78516 535.23284 635.68566 520.17969 619.48633 C 505.12656 603.28702 497.59961 583.87769 497.59961 561.25977 C 497.59961 538.64186 505.12656 519.23254 520.17969 503.0332 C 535.23284 486.8339 553.49505 478.73437 574.9668 478.73438 z M 310.42773 604.81445 C 316.08222 604.81445 320.82003 606.76316 324.64062 610.66016 C 328.53763 614.48075 330.48633 619.02641 330.48633 624.29883 C 330.48633 629.57127 328.53763 634.15769 324.64062 638.05469 C 320.82003 641.87529 316.08222 643.78516 310.42773 643.78516 C 304.77326 643.78516 299.99857 641.87529 296.10156 638.05469 C 292.28097 634.15769 290.37109 629.57127 290.37109 624.29883 C 290.37109 619.02641 292.28097 614.48075 296.10156 610.66016 C 299.99857 606.76316 304.77326 604.81445 310.42773 604.81445 z M 465.84961 604.81445 C 471.50408 604.81445 476.2419 606.76316 480.0625 610.66016 C 483.9595 614.48075 485.9082 619.02641 485.9082 624.29883 C 485.9082 629.57127 483.9595 634.15769 480.0625 638.05469 C 476.2419 641.87529 471.50408 643.78516 465.84961 643.78516 C 460.19511 643.78516 455.42043 641.87529 451.52344 638.05469 C 447.70284 634.15769 445.79297 629.57127 445.79297 624.29883 C 445.79297 619.02641 447.70284 614.48075 451.52344 610.66016 C 455.42043 606.76316 460.19511 604.81445 465.84961 604.81445 z M 695.54492 604.81445 C 701.19942 604.81445 705.93724 606.76316 709.75781 610.66016 C 713.65483 614.48075 715.60352 619.02641 715.60352 624.29883 C 715.60352 629.57127 713.65483 634.15769 709.75781 638.05469 C 705.93724 641.87529 701.19942 643.78516 695.54492 643.78516 C 689.89045 643.78516 685.11379 641.87529 681.2168 638.05469 C 677.3962 634.15769 675.48633 629.57127 675.48633 624.29883 C 675.48633 619.02641 677.3962 614.48075 681.2168 610.66016 C 685.11379 606.76316 689.89045 604.81445 695.54492 604.81445 z "
       style="fill:#2a2aff;stroke-width:0.87546605" />
    <flowRoot
       style="fill:black;fill-opacity:1;stroke:none;font-family:sans-serif;font-style:normal;font-weight:normal;font-size:96px;line-height:1.25;letter-spacing:0px;word-spacing:0px;"
       id="flowRoot10"
       xml:space="preserve"><flowRegion
         style="font-size:96px;"
         id="flowRegion12"><rect
           style="font-size:96px;"
           y="308.92938"
           x="7.7793493"
           height="398.69165"
           width="778.58319"
           id="rect14" /></flowRegion><flowPara
         id="flowPara16" /></flowRoot>    <flowRoot
       style="fill:black;fill-opacity:1;stroke:none;font-family:sans-serif;font-style:normal;font-weight:normal;font-size:40px;line-height:1.25;letter-spacing:0px;word-spacing:0px"
       id="flowRoot22"
       xml:space="preserve"><flowRegion
         id="flowRegion24"><rect
           y="408.76437"
           x="117.33852"
           height="46.027817"
           width="530.94061"
           id="rect26" /></flowRegion><flowPara
         id="flowPara28" /></flowRoot>    <g
       id="text36"
       style="font-style:normal;font-weight:normal;font-size:426.33242798px;line-height:1.25;font-family:sans-serif;letter-spacing:0px;word-spacing:0px;fill:#000000;fill-opacity:1;stroke:none;stroke-width:10.65831184"
       aria-label="M.Ii.A." />
  </g>
</svg>
